{"title":"The Lion of Judah 2011 BDRip XviD-SPRiNTER","uid":7110007,"size":742836503,"categoryP":"video","categoryS":"movies","magnet":"?xt=urn:btih:ab66c6f31e1fa49e6f16ef0554b65c25bd6d0ae4&amp;dn=The+Lion+of+Judah+2011+BDRip+XviD-SPRiNTER&amp;tr=udp%3A%2F%2Ftracker.openbittorrent.com%3A80&amp;tr=udp%3A%2F%2Fopen.demonii.com%3A1337&amp;tr=udp%3A%2F%2Ftracker.coppersurfer.tk%3A6969&amp;tr=udp%3A%2F%2Fexodus.desync.com%3A6969","seeders":3,"leechers":2,"uploader":"HeroMaster","files":-1,"time":1332002207,"description":"ARTiCHOKE\n\nSPRiNTER proudly presents...\n\nThe.Lion.of.Judah.2011.BDRip.XviD-SPRiNTER\n\nDate: 2012.03\n &lt;a href=&quot;\nhttp://www.imdb.com/title/tt1212022&quot; rel=&quot;nofollow&quot; target=&quot;_NEW&quot;&gt;\nhttp://www.imdb.com/title/tt1212022&lt;/a&gt;\n\nGenre: Animation\nSubtitles: English, French, Spanish\n\nRelease notes\n\nEnjoy\n\nGreetings\n\nNTX FiCO HNR CiNEFiLE AEN HUMANiSM TASTE 0MNiDVD\n\nDetails\n\nFormat                          : AVI\nFormat/Info                      : Audio Video Interleave\nFile size                        : 697 MiB\nDuration                        : 1h 27mn\nOverall bit rate mode            : Variable\nOverall bit rate                : 1 117 Kbps\nWriting application              : VirtualDubMod 1.5.10.2 (build 2540/release\nWriting library                  : VirtualDubMod build 2540/release\n\nVideo\nID                              : 0\nFormat                          : MPEG-4 Visual\nFormat profile                  : Advanced SimpleL5\nFormat settings, BVOP            : 2\nFormat settings, QPel            : No\nFormat settings, GMC            : No warppoints\nFormat settings, Matrix          : Default (H.263\nCodec ID                        : XVID\nCodec ID/Hint                    : XviD\nDuration                        : 1h 27mn\nBit rate                        : 977 Kbps\nWidth                            : 624 pixels\nHeight                          : 352 pixels\nDisplay aspect ratio            : 16:9\nFrame rate                      : 23.976 fps\nColor space                      : YUV\nChroma subsampling              : 4:2:0\nBit depth                        : 8 bits\nScan type                        : Progressive\nCompression mode                : Lossy\nBits/(PixelFrame)              : 0.186\nStream size                      : 610 MiB (87\nWriting library                  : XviD 61\n\nAudio\nID                              : 1\nFormat                          : MPEG Audio\nFormat version                  : Version 1\nFormat profile                  : Layer 3\nMode                            : Joint stereo\nMode extension                  : MS Stereo\nCodec ID                        : 55\nCodec ID/Hint                    : MP3\nDuration                        : 1h 27mn\nBit rate mode                    : Variable\nBit rate                        : 128 Kbps\nChannel(s)                      : 2 channels\nSampling rate                    : 48.0 KHz\nCompression mode                : Lossy\nStream size                      : 79.3 MiB (11\nAlignment                        : Aligned on interleaves\nInterleave, duration            : 24 ms (0.58 video frame\nInterleave, preload duration    : 145 ms\nWriting library                  : LAME3.90\nEncoding settings                : -m j -V 4 -q 2 -lowpass 17.6 --abr 128\n\n\nPoster:\n\n &lt;a href=&quot;\nhttp://i.imgur.com/0WnKR.jpg&quot; rel=&quot;nofollow&quot; target=&quot;_NEW&quot;&gt;\nhttp://i.imgur.com/0WnKR.jpg&lt;/a&gt;\n\n\nScreenshots:\n\n &lt;a href=&quot;\nhttp://i.imgur.com/CaV2B.jpg&quot; rel=&quot;nofollow&quot; target=&quot;_NEW&quot;&gt;\nhttp://i.imgur.com/CaV2B.jpg&lt;/a&gt;\n\n\nENJOY!","torrent":{"xt":"urn:btih:ab66c6f31e1fa49e6f16ef0554b65c25bd6d0ae4","amp;dn":"The+Lion+of+Judah+2011+BDRip+XviD-SPRiNTER","amp;tr":["udp%3A%2F%2Ftracker.openbittorrent.com%3A80","udp%3A%2F%2Fopen.demonii.com%3A1337","udp%3A%2F%2Ftracker.coppersurfer.tk%3A6969","udp%3A%2F%2Fexodus.desync.com%3A6969"],"infoHash":"ab66c6f31e1fa49e6f16ef0554b65c25bd6d0ae4","infoHashBuffer":{"type":"Buffer","data":[171,102,198,243,30,31,164,158,111,22,239,5,84,182,92,37,189,109,10,228]},"announce":[],"urlList":[]}}